# xmcd CD database file
#
# Track frame offsets:
#	150
#	11593
#	27787
#	41480
#	54611
#	65465
#	78008
#	91416
#	101221
#	111344
#	127187
#	143324
#
# Disc length: 2135 seconds
#
# Revision: 0
# Processed by: cddbd v1.5.2PL0 Copyright (c) Steve Scherf et al.
# Submitted via: CDex 1.51
#
DISCID=9808550c
DTITLE=Kylie Hogan - Somone(On Your Mind)
DYEAR=2004
DGENRE=Country
TTITLE0=Country kind Of Girl
TTITLE1=I Met You
TTITLE2=Carmelita
TTITLE3=My Old Friend The Blues
TTITLE4=You Look Silly Crying
TTITLE5=Even The Sun Would Cry
TTITLE6=Someone On Your Mind
TTITLE7=My Heart Cracked
TTITLE8=Out Getting Over You
TTITLE9=Eye Of The Storm
TTITLE10=Bidding Australia Goodbye
TTITLE11=Jesse
EXTD=YEAR: 2004
EXTT0=
EXTT1=
EXTT2=
EXTT3=
EXTT4=
EXTT5=
EXTT6=
EXTT7=
EXTT8=
EXTT9=
EXTT10=
EXTT11=
PLAYORDER=
